<svg xmlns="http://www.w3.org/2000/svg" width="21.731" height="18.627" viewBox="0 0 21.731 18.627">
  <g id="Group_3225" data-name="Group 3225" transform="translate(-58 -824.76)">
    <g id="md-partly-sunny" transform="translate(55.75 820.26)">
      <path id="Path_12419" data-name="Path 12419" d="M17.44,7.675l1.2-1.2.933.933-1.2,1.2Z" transform="translate(-4.711 -0.613)" fill="#3eabf4"/>
      <path id="Path_12420" data-name="Path 12420" d="M10.58,8.838A4,4,0,0,0,6.588,12.83a3.935,3.935,0,0,0,.723,2.28,6.4,6.4,0,0,1,2.653-1.339l.64-.805a6.333,6.333,0,0,1,2.464-1.887,7.152,7.152,0,0,1,.922-.32,4,4,0,0,0-3.41-1.921Z" transform="translate(-1.345 -1.345)" fill="#3eabf4"/>
      <path id="Path_12421" data-name="Path 12421" d="M11.391,4.5h1.358V6.489H11.391Z" transform="translate(-2.835)" fill="#3eabf4"/>
      <path id="Path_12422" data-name="Path 12422" d="M2.25,13.641H4.239V15H2.25Z" transform="translate(0 -2.835)" fill="#3eabf4"/>
      <path id="Path_12423" data-name="Path 12423" d="M5.181,19.446l-.039-.039-1.2,1.2.931.931,1.2-1.2Z" transform="translate(-0.525 -4.623)" fill="#3eabf4"/>
      <path id="Path_12424" data-name="Path 12424" d="M5.156,6.478l1.2,1.2-.933.933-1.2-1.2Z" transform="translate(-0.612 -0.613)" fill="#3eabf4"/>
      <path id="Path_12425" data-name="Path 12425" d="M21.768,18.186a5.814,5.814,0,0,0-5.7-4.686,5.164,5.164,0,0,0-4.2,1.882,5.877,5.877,0,0,1,3.774,1.645A5.957,5.957,0,0,1,17.2,19.709H15.806a4.62,4.62,0,0,0-4.394-3.1,4.765,4.765,0,0,0-.859.083,4.655,4.655,0,0,0,.854,9.23H21.5a3.87,3.87,0,0,0,.272-7.732Z" transform="translate(-1.396 -2.791)" fill="#3eabf4"/>
    </g>
  </g>
</svg>
