<svg xmlns="http://www.w3.org/2000/svg" width="18" height="18" viewBox="0 0 18 18">
  <g id="Group_3412" data-name="Group 3412" transform="translate(-79.309 -414)">
    <path id="calendar" d="M17.679,3.536h-.643V2.911a.655.655,0,0,0-.612-.66.643.643,0,0,0-.674.642v.643h-9V2.911a.655.655,0,0,0-.612-.66.643.643,0,0,0-.674.642v.643H4.821A2.571,2.571,0,0,0,2.25,6.108V17.679a2.571,2.571,0,0,0,2.571,2.571H17.679a2.571,2.571,0,0,0,2.571-2.571V6.108A2.571,2.571,0,0,0,17.679,3.536ZM6.429,17.679a.965.965,0,1,1,.965-.965A.965.965,0,0,1,6.429,17.679Zm0-3.214a.965.965,0,1,1,.965-.965A.965.965,0,0,1,6.429,14.465Zm3.214,3.214a.965.965,0,1,1,.965-.965A.965.965,0,0,1,9.643,17.679Zm0-3.214a.965.965,0,1,1,.965-.965A.965.965,0,0,1,9.643,14.465Zm3.214,3.214a.965.965,0,1,1,.965-.965A.965.965,0,0,1,12.858,17.679Zm0-3.214a.965.965,0,1,1,.965-.965A.965.965,0,0,1,12.858,14.465Zm0-3.214a.965.965,0,1,1,.965-.965A.965.965,0,0,1,12.858,11.251Zm3.214,3.214a.965.965,0,1,1,.965-.965A.965.965,0,0,1,16.072,14.465Zm0-3.214a.965.965,0,1,1,.965-.965A.965.965,0,0,1,16.072,11.251Zm2.893-4.822v.643a.322.322,0,0,1-.322.322H3.857a.322.322,0,0,1-.322-.322V6.107A1.289,1.289,0,0,1,4.821,4.821H17.679a1.289,1.289,0,0,1,1.286,1.286Z" transform="translate(77.059 411.749)" fill="#3eabf4"/>
  </g>
</svg>
