<svg xmlns="http://www.w3.org/2000/svg" width="19.667" height="19.702" viewBox="0 0 19.667 19.702">
  <g id="Group_3415" data-name="Group 3415" transform="translate(-0.25 -0.25)">
    <path id="home" d="M21.463,9.756,12.746,2.117a1.547,1.547,0,0,0-2.066.041L2.661,9.794l-.411.392V21.444H9.976V14.42h4.214v7.024h7.726V10.154ZM11.734,3.08c.012,0,0,0,0,.008S11.722,3.08,11.734,3.08Zm8.779,17.026H15.6V14.42a1.373,1.373,0,0,0-1.4-1.338H9.976a1.373,1.373,0,0,0-1.4,1.338v5.686H3.655V10.74L11.734,3.1h0l8.777,7.637Z" transform="translate(-2 -1.492)" fill="#3eabf4"/>
  </g>
</svg>
