<svg xmlns="http://www.w3.org/2000/svg" width="20.771" height="18.582" viewBox="0 0 20.771 18.582">
  <g id="Group_3418" data-name="Group 3418" transform="translate(0 -0.709)">
    <g id="wallet-outline" transform="translate(0 0.709)">
      <path id="Path_12470" data-name="Path 12470" d="M5.564,10.125H20.157a2.189,2.189,0,0,1,2.189,2.189V21.07a2.189,2.189,0,0,1-2.189,2.189H5.564A2.189,2.189,0,0,1,3.375,21.07V12.314A2.189,2.189,0,0,1,5.564,10.125Z" transform="translate(-2.475 -5.577)" fill="rgba(0,0,0,0)"/>
      <path id="Path_12470_-_Outline" data-name="Path 12470 - Outline" d="M5.564,9.225H20.157a3.092,3.092,0,0,1,3.089,3.089V21.07a3.092,3.092,0,0,1-3.089,3.089H5.564A3.092,3.092,0,0,1,2.475,21.07V12.314A3.092,3.092,0,0,1,5.564,9.225ZM20.157,22.359a1.29,1.29,0,0,0,1.289-1.289V12.314a1.29,1.29,0,0,0-1.289-1.289H5.564a1.29,1.29,0,0,0-1.289,1.289V21.07a1.29,1.29,0,0,0,1.289,1.289Z" transform="translate(-2.475 -5.577)" fill="#3eabf4"/>
      <path id="Path_12471" data-name="Path 12471" d="M19.945,8.149V6.781a2.28,2.28,0,0,0-2.707-2.24L5.228,6.591A2.28,2.28,0,0,0,3.375,8.833v2.234" transform="translate(-2.475 -3.6)" fill="rgba(0,0,0,0)"/>
      <path id="Path_12471_-_Outline" data-name="Path 12471 - Outline" d="M4.275,11.067h-1.8V8.833A3.183,3.183,0,0,1,5.059,5.707l.017,0,12-2.049A3.18,3.18,0,0,1,20.845,6.78V8.149h-1.8V6.781a1.38,1.38,0,0,0-1.639-1.355l-.017,0-12,2.049A1.382,1.382,0,0,0,4.275,8.832Z" transform="translate(-2.475 -3.6)" fill="#3eabf4"/>
      <path id="Path_12472" data-name="Path 12472" d="M25.084,20.919a1.459,1.459,0,1,1,1.459-1.459A1.459,1.459,0,0,1,25.084,20.919Z" transform="translate(-9.591 -8.344)" fill="#3eabf4"/>
    </g>
  </g>
</svg>
