<svg xmlns="http://www.w3.org/2000/svg" width="20.695" height="20.687" viewBox="0 0 20.695 20.687">
  <g id="Group_3419" data-name="Group 3419" transform="translate(0 0)">
    <path id="phone" d="M21.672,24.062h-.135C5.9,23.164,3.682,9.971,3.372,5.945a2.387,2.387,0,0,1,2.2-2.57H9.952a1.591,1.591,0,0,1,1.48,1l1.209,2.976a1.591,1.591,0,0,1-.35,1.719L10.6,10.783a7.455,7.455,0,0,0,6.031,6.047l1.726-1.711a1.591,1.591,0,0,1,1.726-.326l3,1.2a1.591,1.591,0,0,1,.98,1.48v4.2a2.387,2.387,0,0,1-2.387,2.387ZM5.759,4.966a.8.8,0,0,0-.8.8v.064c.366,4.71,2.713,15.85,16.662,16.645a.8.8,0,0,0,.844-.748V17.474l-3-1.2L17.185,18.54l-.382-.048c-6.922-.867-7.861-7.79-7.861-7.861l-.048-.382,2.26-2.284-1.194-3Z" transform="translate(-3.364 -3.375)" fill="#3eabf4" opacity="0.8"/>
  </g>
</svg>
