<svg xmlns="http://www.w3.org/2000/svg" width="18.129" height="16.186" viewBox="0 0 18.129 16.186">
  <g id="Group_3411" data-name="Group 3411" transform="translate(-79 -415.288)">
    <g id="wallet" transform="translate(76.785 411.911)">
      <path id="Path_12445" data-name="Path 12445" d="M5.2,5.642H18.146a3.55,3.55,0,0,1,.452.029,2.671,2.671,0,0,0-3.137-2.249L4.812,5.24H4.8A2.671,2.671,0,0,0,3.138,6.3,3.544,3.544,0,0,1,5.2,5.642Z" transform="translate(-0.392)" fill="#3eabf4"/>
      <path id="Path_12446" data-name="Path 12446" d="M17.754,9H4.8a2.593,2.593,0,0,0-2.59,2.59v7.77a2.593,2.593,0,0,0,2.59,2.59H17.754a2.593,2.593,0,0,0,2.59-2.59V11.59A2.593,2.593,0,0,0,17.754,9Zm-1.922,7.77a1.295,1.295,0,1,1,1.295-1.295A1.295,1.295,0,0,1,15.832,16.77Z" transform="translate(0 -2.387)" fill="#3eabf4"/>
      <path id="Path_12447" data-name="Path 12447" d="M2.25,13.112V9.086A2.65,2.65,0,0,1,4.421,6.421a17.553,17.553,0,0,1,2.847-.269S8.2,6.8,7.43,6.8a.5.5,0,1,0,0,.992c.749,0,0,.951,0,.951l-3.015,3.42Z" transform="translate(-0.015 -1.178)" fill="#3eabf4"/>
    </g>
  </g>
</svg>
