<svg xmlns="http://www.w3.org/2000/svg" width="31.499" height="29.251" viewBox="0 0 31.499 29.251">
  <g id="language" transform="translate(-2.25 -3.375)">
    <path id="Path_13141" data-name="Path 13141" d="M33.633,30.488,27.305,15.16a1.547,1.547,0,0,0-2.86,0L18.117,30.488a1.547,1.547,0,0,0,2.86,1.181l1.288-3.122h7.219l1.289,3.121a1.546,1.546,0,1,0,2.859-1.18Zm-10.09-5.035L25.875,19.8l2.332,5.649Z" fill="#3eabf4"/>
    <path id="Path_13142" data-name="Path 13142" d="M18.832,24.112a1.547,1.547,0,0,0-.344-2.159,20.185,20.185,0,0,1-2.566-2.442A36.271,36.271,0,0,0,20.933,9.422H23.2a1.547,1.547,0,1,0,0-3.094H15.047V4.922a1.547,1.547,0,1,0-3.094,0V6.328H3.8a1.547,1.547,0,1,0,0,3.094H17.666a33.547,33.547,0,0,1-3.782,7.619A26.515,26.515,0,0,1,10.849,12.2,1.547,1.547,0,0,0,8,13.394a29.518,29.518,0,0,0,3.717,5.9l.193.247a28.753,28.753,0,0,1-6.6,5.677,1.547,1.547,0,1,0,1.481,2.716,30.32,30.32,0,0,0,7.146-6.018,21.182,21.182,0,0,0,2.737,2.538,1.547,1.547,0,0,0,2.162-.345Z" fill="#3eabf4"/>
  </g>
</svg>
