<svg id="telephone" xmlns="http://www.w3.org/2000/svg" width="18.294" height="13.721" viewBox="0 0 18.294 13.721">
  <path id="email-line" d="M19.151,6H3.143A1.143,1.143,0,0,0,2,7.143V18.577a1.143,1.143,0,0,0,1.143,1.143H19.151a1.143,1.143,0,0,0,1.143-1.143V7.143A1.143,1.143,0,0,0,19.151,6Zm-.88,12.577H4.092l4-4.139-.823-.795L3.143,17.914v-9.9l7.106,7.072a1.143,1.143,0,0,0,1.612,0l7.289-7.249v10l-4.208-4.208-.806.806ZM3.892,7.143H18.225l-7.169,7.129Z" transform="translate(-2 -6)" fill="#3eabf4"/>
</svg>
