<svg xmlns="http://www.w3.org/2000/svg" width="17.888" height="19.739" viewBox="0 0 17.888 19.739">
  <path id="fi-rr-bell" d="M18.723,11.235,17.161,5.614A7.665,7.665,0,0,0,2.294,6l-1.21,5.44a4.112,4.112,0,0,0,4.014,5h.916a4.112,4.112,0,0,0,8.059,0h.689a4.112,4.112,0,0,0,3.962-5.212Zm-8.68,6.857a2.467,2.467,0,0,1-2.316-1.645h4.632A2.467,2.467,0,0,1,10.043,18.092Zm6.682-4.264a2.448,2.448,0,0,1-1.965.974H5.1a2.467,2.467,0,0,1-2.408-3L3.9,6.36a6.02,6.02,0,0,1,11.677-.306l1.562,5.622a2.448,2.448,0,0,1-.413,2.153Z" transform="translate(-0.986 -0.002)" fill="#3eabf4"/>
</svg>
