<svg xmlns="http://www.w3.org/2000/svg" width="18.154" height="20.171" viewBox="0 0 18.154 20.171">
  <path id="schedule" d="M9.543,5.017h8.069V3h2.017V5.017h1.009a2.017,2.017,0,0,1,2.017,2.017v14.12a2.017,2.017,0,0,1-2.017,2.017H6.517A2.017,2.017,0,0,1,4.5,21.154V7.034A2.017,2.017,0,0,1,6.517,5.017H7.526V3H9.543ZM6.517,9.051v12.1h14.12V9.051Zm2.017,3.026h2.017v2.017H8.534Zm4.034,0h2.017v2.017H12.569Zm4.034,0H18.62v2.017H16.6Zm0,4.034H18.62v2.017H16.6Zm-4.034,0h2.017v2.017H12.569Zm-4.034,0h2.017v2.017H8.534Z" transform="translate(-4.5 -3)" fill="#3eabf4" fill-rule="evenodd"/>
</svg>
