<svg xmlns="http://www.w3.org/2000/svg" width="30.582" height="31.41" viewBox="0 0 30.582 31.41">
  <g id="settings" transform="translate(-2.715 -2.295)">
    <path id="Path_13139" data-name="Path 13139" d="M30.375,18.855V17.134l2.16-1.89a2.25,2.25,0,0,0,.427-2.869l-2.655-4.5a2.268,2.268,0,0,0-2.666-1.012l-2.734.922a12.769,12.769,0,0,0-1.474-.844l-.574-2.835A2.25,2.25,0,0,0,20.609,2.3H15.344a2.25,2.25,0,0,0-2.25,1.811L12.52,6.941a12.915,12.915,0,0,0-1.485.844L8.358,6.817a2.25,2.25,0,0,0-.719-.067A2.25,2.25,0,0,0,5.693,7.875l-2.655,4.5A2.25,2.25,0,0,0,3.5,15.2l2.126,1.946v1.721L3.5,20.756a2.25,2.25,0,0,0-.461,2.869l2.655,4.5a2.268,2.268,0,0,0,2.666,1.012l2.734-.922a12.769,12.769,0,0,0,1.474.844l.574,2.835a2.25,2.25,0,0,0,2.25,1.811H20.7a2.25,2.25,0,0,0,2.25-1.811l.574-2.835a12.915,12.915,0,0,0,1.485-.844l2.723.922A2.268,2.268,0,0,0,30.4,28.125l2.565-4.5A2.25,2.25,0,0,0,32.5,20.8ZM28.361,27,24.5,25.695a9.967,9.967,0,0,1-3.049,1.766l-.8,4.039h-5.31l-.8-3.994a10.53,10.53,0,0,1-3.038-1.766L7.639,27,4.984,22.5l3.06-2.7a10.013,10.013,0,0,1,0-3.521L4.984,13.5,7.639,9,11.5,10.305a9.967,9.967,0,0,1,3.049-1.766l.8-4.039h5.31l.8,3.994a10.53,10.53,0,0,1,3.038,1.766L28.361,9l2.655,4.5-3.06,2.7a10.013,10.013,0,0,1,0,3.521l3.06,2.779Z" fill="#3eabf4"/>
    <path id="Path_13140" data-name="Path 13140" d="M18,24.75a6.683,6.683,0,1,1,4.793-1.957A6.75,6.75,0,0,1,18,24.75ZM18,13.5A4.4,4.4,0,0,0,13.5,18,4.4,4.4,0,0,0,18,22.5,4.4,4.4,0,0,0,22.5,18,4.4,4.4,0,0,0,18,13.5Z" fill="#3eabf4"/>
  </g>
</svg>
